<svg xmlns="http://www.w3.org/2000/svg" version="1.1" xmlns:xlink="http://www.w3.org/1999/xlink" xmlns:svgjs="http://svgjs.dev/svgjs" width="1500" height="1500" viewBox="0 0 1500 1500"><rect width="1500" height="1500" fill="#ed1703"></rect><g transform="matrix(0.6666666666666666,0,0,0.6666666666666666,250.00007343750008,187.66666666666674)"><svg viewBox="0 0 320 360" data-background-color="#ed1703" preserveAspectRatio="xMidYMid meet" height="1687" width="1500" xmlns="http://www.w3.org/2000/svg" xmlns:xlink="http://www.w3.org/1999/xlink"><g id="tight-bounds" transform="matrix(1,0,0,1,0.000023499999997511622,0)"><svg viewBox="0 0 320 360" height="360" width="320"><g><svg></svg></g><g><svg viewBox="0 0 320 360" height="360" width="320"><g><path transform="translate(-74.99272,-51.79039) scale(4.65793,4.65793)" d="M20.6 59.9l0.8 1-0.4-1.3c-0.1-0.6-0.8 0.1-0.4 0.3M21.5 59.3c0.3 0.5 0.6 1 0.6 1.5 0 0.7 0.6 1 1.1 1.2-0.7-0.8-1.1-3-1.7-2.7M59.9 16.9c1.7 0 3.3-0.2 5.1 0.2 4.4 1.1 8.1 3.3 10.6 6.4l7 11.2c0.3 2.8 0.9 5.9 0.8 9.3 0.7 0 0.6-1 1.4-1.2-0.8 2-1.2 4.5-1.4 7.4-0.5-1.6 0-4 0.1-5.3-0.7 1.1-1.1 0.3-1.1-0.2 0.1-0.8-0.3-0.7-0.6-1-1.1-1-1.8-2.1-2.6-3.8 0.5-1.3 0.6-3.2-1-4.2-0.5-0.3-1.1-0.8-1.4-1.6-0.4-1.1-1.1-2.4-0.9-4.1 0.1-0.5-1.5 1.1-2.4 0.4-3.9-2.7-7.8-5.8-12.5-8.4-2.5 0-4.3-0.9-5.2-2-0.8-1-0.2-2.3 1-2.4 0.7 0 1.5-0.2 2.1 0.2 0.1-0.4 0.5-0.9 1-0.9M50 14.6l0.2 0.1c1 0.2 1.5 1.6 2.6 1.1 0 0.7 0.1 1.4-0.1 1.9-0.3 0.8-1.2 0.8-1.9 0.8-6.7-0.4-10.6 2.4-14.7 4.8-1.1 0.7-2.3 1.2-3.2 2.1-4.3 4-9 7.7-10.1 15.1l-0.9 8.2c-0.1 0.9-1.1 1.8-0.9 2.9l0.7 4.9c-0.7-0.7-1.1 0.2-0.9 0.6 0.1 0.3 0.5 1.3 1.1 0.4 0.8 1.5 1.6 4.4 2.7 5.7 3.4 4 7.8 7.6 11.4 11.2 0.9-0.2 1.6-0.2 1.8-0.8 0.3 0.6-0.3 1.2-0.8 1.3 1.6 1 3.4 1.9 5.8 2.1 3.1 0.2 6 0.7 8.7 1.4 1.4-0.4 2.8-0.6 4.3-0.7 0.5 0 0.8-0.8 1.4-1l0.1-1c0.6 0.9 0.5-0.3 0.1-0.9 0.7 0.6 0.9 1.1 1.2 1.5 0-0.3 0.8-1.4 0.8-0.1l0.2-1.3c0.3-0.2 0.4 1.1 0.7 0.2 0.3-0.9 0.9-0.2 1.5-0.5-0.2 0.4-0.1 1.2 0.6 0.7l0.8-0.7c0.5 1.2 1.3 0.7 1.7 0.5 4.4-2.8 8.8-6.1 13-9.4l-0.1 1.3 0.5-1.6c0.5 0.5 0.9 0.1 1.1-0.2 0.6-1 1.4-2 2.7-2.9-1.6 4.3-3.5 7.7-5.9 10.5l-1 1.2c0 0.7-0.2 1.6-1 1.7-0.4 0.1-1.2-0.2-1.8 0.4-0.3 0.4 0.7 1.2-0.1 0.6-0.7-0.5-1.4 0-2.2 0.2-0.6 0.2 0.4 0.8 0.6 1.2 0.2 0.4 0.4 0.8 0.3 1.3l-1.1-1.2c-1.3 0.7-2.1 2-3.2 3-0.5 0.4-0.3 1.1-0.3 1.7-0.7 0-1.5-0.2-1.9 0.2-0.3 0.4-0.2 1-0.2 1.6-1-0.1-1.1-1.6-2-1.3-0.9 0.2-1.9 0.3-2.7 0.8 0.6 1.2-1 0.5-0.8 0.7-1.5-0.9-2.8-1.6-4.4-1-3.4-1.1-7.6-0.6-10.7-0.2 0-0.5 0.1-1-0.1-1.1-0.2 0.5-0.8 0.3-0.7 0.3-1.9-1.3-3.8-2.1-5.8-3.2-1.8 0.2-3.5-0.7-4-1.2-1.4-1.3-3-0.6-4.3-0.9-2.8-0.7-3.8-3.6-4.1-5.6-0.2-1-1-1.4-1.3-1.3-1.3-4.2-3.3-8-4.9-11.9-0.4-1-0.3-2-0.3-3.1 0.5 0.2 1 0.1 0.9-0.6-0.5-3.3-1.7-5.8-3-8.2 0.7-3.4 0.8-7.4 2.4-10.4 1.4-2.7 4-4.1 5.8-6.4 0.6-0.8 0.6-1.9 1.2-2.6 2-2 4-4.1 6.2-5.9 1-0.8 2.2 0 3.7-0.3 0.5-1.8 2.5-3.4 4.4-2.9 0.8 0.2 2.4-1.9 2.9-2.1 0.8-0.3 0.4 0.8 0.4 1.5 1.9-1.5 4.5-2.3 6.9-3.2" fill="#f7e1e1" fill-rule="nonzero" stroke="none" stroke-width="1" stroke-linecap="butt" stroke-linejoin="miter" stroke-miterlimit="10" stroke-dasharray="" stroke-dashoffset="0" font-family="none" font-weight="none" font-size="none" text-anchor="none" style="mix-blend-mode: normal" data-fill-palette-color="tertiary"></path></g><g transform="matrix(1,0,0,1,64,131.03200767109837)"><svg viewBox="0 0 192 97.93598465780323" height="97.93598465780323" width="192"><g><svg viewBox="0 0 192 97.93598465780323" height="97.93598465780323" width="192"><g><svg viewBox="0 0 192 97.93598465780323" height="97.93598465780323" width="192"><g transform="matrix(1,0,0,1,0,59.19431969564329)"><svg viewBox="0 0 192 38.74166496215995" height="38.74166496215995" width="192"><g id="textblocktransform"><svg viewBox="0 0 192 38.74166496215995" height="38.74166496215995" width="192" id="textblock"><g><svg viewBox="0 0 192 38.74166496215995" height="38.74166496215995" width="192"><g transform="matrix(1,0,0,1,0,0)"><svg width="192" viewBox="4.13 -37.5 238.69 48.17" height="38.74166496215995" data-palette-color="#f7e1e1"><path d="M16.8-16.65L7.81-16.65 7.76-20.39 15.92-20.39Q18.95-20.39 20.8-21.9 22.66-23.41 22.66-26.12L22.66-26.12Q22.66-29.05 20.96-30.38 19.26-31.71 15.8-31.71L15.8-31.71 8.86-31.71 8.86 0 4.13 0 4.13-35.55 15.8-35.55Q21.24-35.55 24.32-33.29 27.39-31.03 27.39-26.07L27.39-26.07Q27.39-23.88 26.27-22.11 25.15-20.34 23.13-19.21 21.12-18.09 18.46-17.77L18.46-17.77 16.8-16.65ZM16.58 0L5.93 0 8.64-3.81 16.58-3.81Q19.92-3.81 21.75-5.54 23.58-7.28 23.58-10.21L23.58-10.21Q23.58-12.18 22.88-13.64 22.17-15.09 20.68-15.87 19.19-16.65 16.8-16.65L16.8-16.65 10.08-16.65 10.13-20.39 19.31-20.39 20.31-19.02Q22.88-18.8 24.66-17.58 26.44-16.36 27.38-14.45 28.32-12.55 28.32-10.25L28.32-10.25Q28.32-5.25 25.11-2.62 21.9 0 16.58 0L16.58 0ZM41.99-2.73L49.34-26.42 54.2-26.42 43.6 4.08Q43.23 5.05 42.64 6.19 42.04 7.32 41.12 8.35 40.21 9.38 38.89 10.02 37.57 10.67 35.76 10.67L35.76 10.67Q35.4 10.67 34.89 10.6 34.37 10.52 33.91 10.44 33.44 10.35 33.2 10.28L33.2 10.28 33.2 6.64Q33.4 6.67 33.82 6.71 34.25 6.76 34.42 6.76L34.42 6.76Q36.72 6.76 38.01 5.81 39.3 4.86 40.11 2.42L40.11 2.42 41.99-2.73ZM36.67-26.42L43.48-5.88 44.65-1.12 41.38 0.51 31.69-26.42 36.67-26.42ZM63.18-37.5L63.18 0 58.61 0 58.61-37.5 63.18-37.5ZM75.33-26.42L75.33 0 70.77 0 70.77-26.42 75.33-26.42ZM70.43-33.45L70.43-33.45Q70.43-34.52 71.1-35.28 71.77-36.04 73.09-36.04L73.09-36.04Q74.41-36.04 75.1-35.28 75.8-34.52 75.8-33.45L75.8-33.45Q75.8-32.4 75.1-31.65 74.41-30.91 73.09-30.91L73.09-30.91Q71.77-30.91 71.1-31.65 70.43-32.4 70.43-33.45ZM87.1-20.78L87.1 0 82.53 0 82.53-26.42 86.86-26.42 87.1-20.78ZM86.03-14.23L84.12-14.31Q84.17-17.92 85.51-20.76 86.86-23.61 89.26-25.26 91.66-26.9 94.86-26.9L94.86-26.9Q97.48-26.9 99.37-25.94 101.26-24.98 102.3-22.88 103.33-20.78 103.33-17.31L103.33-17.31 103.33 0 98.77 0 98.77-17.36Q98.77-19.43 98.17-20.7 97.57-21.97 96.4-22.55 95.23-23.12 93.52-23.12L93.52-23.12Q91.84-23.12 90.47-22.41 89.1-21.7 88.1-20.46 87.1-19.21 86.56-17.61 86.03-16.02 86.03-14.23L86.03-14.23ZM121.13 0.49L121.13 0.49Q117.44 0.49 114.72-1.16 112-2.81 110.5-5.69 109-8.57 109-12.28L109-12.28 109-13.33Q109-17.63 110.64-20.67 112.29-23.71 114.94-25.31 117.59-26.9 120.54-26.9L120.54-26.9Q124.35-26.9 126.76-25.21 129.16-23.51 130.3-20.59 131.43-17.68 131.43-13.99L131.43-13.99 131.43-11.96 111.71-11.96 111.71-15.63 126.87-15.63 126.87-15.97Q126.77-17.72 126.16-19.4 125.55-21.07 124.21-22.16 122.86-23.24 120.54-23.24L120.54-23.24Q118.49-23.24 116.92-22.08 115.34-20.92 114.45-18.71 113.56-16.5 113.56-13.33L113.56-13.33 113.56-12.28Q113.56-9.77 114.49-7.7 115.42-5.64 117.18-4.41 118.93-3.17 121.37-3.17L121.37-3.17Q123.77-3.17 125.43-4.15 127.09-5.13 128.33-6.76L128.33-6.76 131.09-4.61Q129.82-2.66 127.44-1.09 125.06 0.49 121.13 0.49ZM159.53-3.66L159.53 0 136.22 0 136.22-3.22 147.86-16.19Q150.03-18.58 151.22-20.25 152.4-21.92 152.87-23.27 153.33-24.61 153.33-26L153.33-26Q153.33-28.64 151.73-30.51 150.13-32.37 147.18-32.37L147.18-32.37Q144.78-32.37 143.21-31.45 141.64-30.52 140.87-28.88 140.1-27.25 140.1-25.1L140.1-25.1 135.53-25.1Q135.53-28.1 136.85-30.59 138.17-33.08 140.77-34.56 143.37-36.04 147.18-36.04L147.18-36.04Q152.21-36.04 155.05-33.42 157.9-30.81 157.9-26.54L157.9-26.54Q157.9-24.44 156.99-22.31 156.09-20.19 154.57-18.1 153.06-16.02 151.23-14.04L151.23-14.04 141.71-3.66 159.53-3.66ZM186.63-20.61L186.63-15.16Q186.63-9.38 185.27-5.94 183.92-2.51 181.4-1.01 178.89 0.49 175.45 0.49L175.45 0.49Q172.05 0.49 169.51-1.01 166.97-2.51 165.57-5.94 164.17-9.38 164.17-15.16L164.17-15.16 164.17-20.61Q164.17-26.42 165.55-29.79 166.93-33.15 169.45-34.59 171.98-36.04 175.4-36.04L175.4-36.04Q178.84-36.04 181.35-34.59 183.87-33.15 185.25-29.79 186.63-26.42 186.63-20.61L186.63-20.61ZM182.06-14.45L182.06-21.36Q182.06-25.37 181.31-27.78 180.55-30.2 179.06-31.29 177.57-32.37 175.4-32.37L175.4-32.37Q173.25-32.37 171.76-31.29 170.27-30.2 169.5-27.78 168.73-25.37 168.73-21.36L168.73-21.36 168.73-14.45Q168.73-10.47 169.51-7.98 170.3-5.49 171.8-4.33 173.3-3.17 175.45-3.17L175.45-3.17Q177.64-3.17 179.11-4.33 180.57-5.49 181.32-7.98 182.06-10.47 182.06-14.45L182.06-14.45ZM207.28-35.74L207.28 0 202.71 0 202.71-30.15 193.63-26.81 193.63-30.88 206.57-35.74 207.28-35.74ZM242.82-20.61L242.82-15.16Q242.82-9.38 241.47-5.94 240.11-2.51 237.6-1.01 235.08 0.49 231.64 0.49L231.64 0.49Q228.25 0.49 225.71-1.01 223.17-2.51 221.77-5.94 220.36-9.38 220.36-15.16L220.36-15.16 220.36-20.61Q220.36-26.42 221.74-29.79 223.12-33.15 225.65-34.59 228.18-36.04 231.59-36.04L231.59-36.04Q235.04-36.04 237.55-34.59 240.07-33.15 241.44-29.79 242.82-26.42 242.82-20.61L242.82-20.61ZM238.26-14.45L238.26-21.36Q238.26-25.37 237.5-27.78 236.75-30.2 235.26-31.29 233.77-32.37 231.59-32.37L231.59-32.37Q229.45-32.37 227.96-31.29 226.47-30.2 225.7-27.78 224.93-25.37 224.93-21.36L224.93-21.36 224.93-14.45Q224.93-10.47 225.71-7.98 226.49-5.49 227.99-4.33 229.49-3.17 231.64-3.17L231.64-3.17Q233.84-3.17 235.3-4.33 236.77-5.49 237.51-7.98 238.26-10.47 238.26-14.45L238.26-14.45Z" opacity="1" transform="matrix(1,0,0,1,0,0)" fill="#f7e1e1" class="wordmark-text-0" data-fill-palette-color="primary" id="text-0"></path></svg></g></svg></g></svg></g></svg></g><g transform="matrix(1,0,0,1,69.7075539841627,0)"><svg viewBox="0 0 52.58489203167461 53.54098097770506" height="53.54098097770506" width="52.58489203167461"><g><svg xmlns="http://www.w3.org/2000/svg" xmlns:xlink="http://www.w3.org/1999/xlink" version="1.1" x="0" y="0" viewBox="14.168000000000001 13.516 71.66499999999999 72.96799999999999" enable-background="new 0 0 100 100" xml:space="preserve" height="53.54098097770506" width="52.58489203167461" class="icon-icon-0" data-fill-palette-color="accent" id="icon-0"><g fill="#8d021f" data-fill-palette-color="accent"><path fill="none" d="M20.092 66.125h59.816v-30.25H20.092V66.125zM22.092 37.875h55.816v26.25H22.092V37.875z"></path><path d="M77.908 37.875H22.092v26.25h55.816V37.875zM27.909 62.5h-4.125v-4.125h4.125V62.5z" fill="#8d021f" data-fill-palette-color="accent"></path><path d="M80.977 29v-5.709h-6.829V29h-3.921v-5.709h-6.829V29h-4.171v-5.709h-6.829V29h-4.795v-5.709h-6.829V29h-3.921v-5.709h-6.829V29h-4.171v-5.709h-6.829V29h-4.856v42h4.856v5.709h6.829V71h3.921v5.709h6.829V71h4.171v5.709h6.829V71h4.795v5.709h6.829V71h3.921v5.709h6.829V71h4.171v5.709h6.829V71h4.856V29H80.977zM79.908 66.125H20.092v-30.25h59.816V66.125z" fill="#8d021f" data-fill-palette-color="accent"></path><rect x="21.095" y="78.199" width="2.689" height="8.285" fill="#8d021f" data-fill-palette-color="accent"></rect><rect x="31.845" y="78.199" width="2.689" height="8.285" fill="#8d021f" data-fill-palette-color="accent"></rect><rect x="42.845" y="78.199" width="2.689" height="8.285" fill="#8d021f" data-fill-palette-color="accent"></rect><rect x="54.469" y="78.199" width="2.689" height="8.285" fill="#8d021f" data-fill-palette-color="accent"></rect><rect x="65.219" y="78.199" width="2.689" height="8.285" fill="#8d021f" data-fill-palette-color="accent"></rect><rect x="76.219" y="78.199" width="2.689" height="8.285" fill="#8d021f" data-fill-palette-color="accent"></rect><rect x="76.216" y="13.516" width="2.689" height="8.284" fill="#8d021f" data-fill-palette-color="accent"></rect><rect x="65.466" y="13.516" width="2.689" height="8.284" fill="#8d021f" data-fill-palette-color="accent"></rect><rect x="54.466" y="13.516" width="2.689" height="8.284" fill="#8d021f" data-fill-palette-color="accent"></rect><rect x="42.842" y="13.516" width="2.689" height="8.284" fill="#8d021f" data-fill-palette-color="accent"></rect><rect x="32.092" y="13.516" width="2.689" height="8.284" fill="#8d021f" data-fill-palette-color="accent"></rect><rect x="21.092" y="13.516" width="2.689" height="8.284" fill="#8d021f" data-fill-palette-color="accent"></rect></g></svg></g></svg></g><g></g></svg></g></svg></g></svg></g></svg></g><defs></defs></svg><rect width="320" height="360" fill="none" stroke="none" visibility="hidden"></rect></g></svg></g></svg>